<svg width="59" height="58" viewBox="0 0 59 58" fill="none" xmlns="http://www.w3.org/2000/svg">
<circle cx="29.7778" cy="29" r="28" stroke="white" stroke-width="2"/>
<path d="M29.7778 21.5135C25.6349 21.5135 22.2913 24.8571 22.2913 29C22.2913 33.143 25.6349 36.4865 29.7778 36.4865C33.9208 36.4865 37.2643 33.143 37.2643 29C37.2643 24.8571 33.9208 21.5135 29.7778 21.5135ZM29.7778 33.8657C27.0986 33.8657 24.9121 31.6792 24.9121 29C24.9121 26.3208 27.0986 24.1343 29.7778 24.1343C32.4571 24.1343 34.6435 26.3208 34.6435 29C34.6435 31.6792 32.4571 33.8657 29.7778 33.8657ZM37.5709 19.4621C36.6037 19.4621 35.8225 20.2432 35.8225 21.2105C35.8225 22.1778 36.6037 22.959 37.5709 22.959C38.5382 22.959 39.3194 22.1815 39.3194 21.2105C39.3197 20.9809 39.2746 20.7534 39.1869 20.5411C39.0991 20.3288 38.9703 20.136 38.8079 19.9736C38.6455 19.8112 38.4526 19.6824 38.2404 19.5946C38.0281 19.5068 37.8006 19.4618 37.5709 19.4621ZM44.3712 29C44.3712 26.9851 44.3895 24.9885 44.2763 22.9772C44.1632 20.6411 43.6302 18.5678 41.922 16.8595C40.21 15.1476 38.1404 14.6183 35.8043 14.5052C33.7894 14.392 31.7927 14.4103 29.7815 14.4103C27.7666 14.4103 25.7699 14.392 23.7587 14.5052C21.4226 14.6183 19.3493 15.1513 17.641 16.8595C15.9291 18.5715 15.3998 20.6411 15.2866 22.9772C15.1735 24.9921 15.1917 26.9888 15.1917 29C15.1917 31.0113 15.1735 33.0116 15.2866 35.0228C15.3998 37.3589 15.9327 39.4322 17.641 41.1405C19.3529 42.8524 21.4226 43.3817 23.7587 43.4949C25.7736 43.608 27.7702 43.5898 29.7815 43.5898C31.7964 43.5898 33.793 43.608 35.8043 43.4949C38.1404 43.3817 40.2137 42.8488 41.922 41.1405C43.6339 39.4286 44.1632 37.3589 44.2763 35.0228C44.3931 33.0116 44.3712 31.0149 44.3712 29ZM41.1591 37.6071C40.8926 38.2715 40.5714 38.7679 40.0567 39.2789C39.542 39.7936 39.0493 40.1148 38.3849 40.3813C36.4649 41.1441 31.9059 40.9726 29.7778 40.9726C27.6498 40.9726 23.0871 41.1441 21.1671 40.3849C20.5027 40.1184 20.0063 39.7972 19.4953 39.2826C18.9806 38.7679 18.6594 38.2751 18.3929 37.6108C17.6337 35.6871 17.8053 31.1281 17.8053 29C17.8053 26.872 17.6337 22.3092 18.3929 20.3893C18.6594 19.7249 18.9806 19.2285 19.4953 18.7175C20.01 18.2064 20.5027 17.8816 21.1671 17.6151C23.0871 16.8559 27.6498 17.0274 29.7778 17.0274C31.9059 17.0274 36.4686 16.8559 38.3886 17.6151C39.0529 17.8816 39.5493 18.2028 40.0604 18.7175C40.575 19.2321 40.8963 19.7249 41.1627 20.3893C41.922 22.3092 41.7504 26.872 41.7504 29C41.7504 31.1281 41.922 35.6871 41.1591 37.6071Z" fill="white"/>
</svg>
