<svg width="58" height="58" viewBox="0 0 58 58" fill="none" xmlns="http://www.w3.org/2000/svg">
<circle cx="29" cy="29" r="28" stroke="white" stroke-width="2"/>
<path d="M44.947 22.6443C45.1801 21.8951 44.947 21.3457 43.8449 21.3457H40.194C39.265 21.3457 38.8405 21.821 38.6074 22.343C38.6074 22.343 36.7511 26.7236 34.1207 29.564C33.2717 30.3905 32.8838 30.6515 32.4209 30.6515C32.1895 30.6515 31.8532 30.3905 31.8532 29.6413V22.6443C31.8532 21.7453 31.5852 21.3457 30.8111 21.3457H25.0741C24.4948 21.3457 24.1451 21.7614 24.1451 22.1577C24.1451 23.0084 25.4603 23.2049 25.5952 25.6023V30.8029C25.5952 31.942 25.3838 32.1498 24.9176 32.1498C23.6807 32.1498 20.6707 27.7531 18.8843 22.72C18.5364 21.742 18.1851 21.3473 17.2528 21.3473H13.6035C12.5597 21.3473 12.3516 21.8226 12.3516 22.3446C12.3516 23.2823 13.5886 27.9223 18.1135 34.059C21.1302 38.2495 25.3771 40.5212 29.2461 40.5212C31.5652 40.5212 31.8516 40.0169 31.8516 39.1469V35.9794C31.8516 34.9709 32.073 34.7679 32.8072 34.7679C33.3466 34.7679 34.2755 35.0321 36.4415 37.0508C38.9154 39.4449 39.3249 40.5195 40.7151 40.5195H44.3643C45.4065 40.5195 45.9276 40.0153 45.6279 39.0196C45.3 38.0288 44.1179 36.5868 42.5497 34.8807C41.6973 33.9075 40.4237 32.8603 40.0358 32.3367C39.4947 31.6617 39.6512 31.3636 40.0358 30.7643C40.0375 30.7659 44.4842 24.7049 44.947 22.6443Z" fill="white"/>
</svg>
