<svg width="73" height="73" viewBox="0 0 73 73" fill="none" xmlns="http://www.w3.org/2000/svg">
<circle cx="36.5" cy="36.5" r="35.5" stroke="#6E55C4" stroke-width="2"/>
<path d="M36 27.7865C30.9014 27.7865 26.7865 31.9014 26.7865 37C26.7865 42.0986 30.9014 46.2135 36 46.2135C41.0986 46.2135 45.2135 42.0986 45.2135 37C45.2135 31.9014 41.0986 27.7865 36 27.7865ZM36 42.9881C32.7027 42.9881 30.0119 40.2973 30.0119 37C30.0119 33.7027 32.7027 31.0119 36 31.0119C39.2973 31.0119 41.9881 33.7027 41.9881 37C41.9881 40.2973 39.2973 42.9881 36 42.9881ZM45.5908 25.2619C44.4004 25.2619 43.4391 26.2232 43.4391 27.4137C43.4391 28.6041 44.4004 29.5654 45.5908 29.5654C46.7812 29.5654 47.7426 28.6086 47.7426 27.4137C47.7429 27.131 47.6875 26.851 47.5795 26.5898C47.4715 26.3286 47.313 26.0912 47.1131 25.8914C46.9133 25.6915 46.6759 25.533 46.4147 25.425C46.1535 25.317 45.8735 25.2616 45.5908 25.2619ZM53.9598 37C53.9598 34.5203 53.9822 32.0631 53.843 29.5879C53.7037 26.7129 53.0479 24.1613 50.9455 22.059C48.8387 19.9522 46.2916 19.3008 43.4166 19.1615C40.9369 19.0223 38.4797 19.0447 36.0045 19.0447C33.5248 19.0447 31.0676 19.0223 28.5924 19.1615C25.7174 19.3008 23.1658 19.9566 21.0635 22.059C18.9566 24.1658 18.3053 26.7129 18.166 29.5879C18.0268 32.0676 18.0492 34.5248 18.0492 37C18.0492 39.4752 18.0268 41.9369 18.166 44.4121C18.3053 47.2871 18.9611 49.8387 21.0635 51.941C23.1703 54.0479 25.7174 54.6992 28.5924 54.8385C31.0721 54.9777 33.5293 54.9553 36.0045 54.9553C38.4842 54.9553 40.9414 54.9777 43.4166 54.8385C46.2916 54.6992 48.8432 54.0434 50.9455 51.941C53.0523 49.8342 53.7037 47.2871 53.843 44.4121C53.9867 41.9369 53.9598 39.4797 53.9598 37ZM50.0066 47.5926C49.6787 48.4102 49.2834 49.0211 48.65 49.65C48.0166 50.2834 47.4102 50.6787 46.5926 51.0066C44.2297 51.9455 38.6189 51.7344 36 51.7344C33.3811 51.7344 27.7658 51.9455 25.4029 51.0111C24.5854 50.6832 23.9744 50.2879 23.3455 49.6545C22.7121 49.0211 22.3168 48.4147 21.9889 47.5971C21.0545 45.2297 21.2656 39.6189 21.2656 37C21.2656 34.3811 21.0545 28.7658 21.9889 26.4029C22.3168 25.5854 22.7121 24.9744 23.3455 24.3455C23.9789 23.7166 24.5854 23.3168 25.4029 22.9889C27.7658 22.0545 33.3811 22.2656 36 22.2656C38.6189 22.2656 44.2342 22.0545 46.5971 22.9889C47.4146 23.3168 48.0256 23.7121 48.6545 24.3455C49.2879 24.9789 49.6832 25.5854 50.0111 26.4029C50.9455 28.7658 50.7344 34.3811 50.7344 37C50.7344 39.6189 50.9455 45.2297 50.0066 47.5926Z" fill="#6E55C4"/>
</svg>
