<svg width="55" height="55" viewBox="0 0 55 55" fill="none" xmlns="http://www.w3.org/2000/svg">
<rect x="1" y="1" width="53" height="53" rx="26.5" stroke="#6E55C4" stroke-width="2"/>
<path d="M40.7995 33.1854L34.0507 30.161C33.7449 30.03 33.4113 29.9773 33.08 30.0077C32.7487 30.0382 32.4303 30.1507 32.1535 30.3353C32.1254 30.3533 32.0987 30.3734 32.0735 30.3953L28.5462 33.3954C28.5096 33.4153 28.4689 33.4265 28.4272 33.428C28.3856 33.4295 28.3441 33.4213 28.3062 33.404C26.039 32.3096 23.6903 29.9753 22.5917 27.7395C22.5734 27.7021 22.5639 27.6611 22.5639 27.6195C22.5639 27.5779 22.5734 27.5368 22.5917 27.4995L25.6018 23.9279C25.6234 23.9015 25.6435 23.8738 25.6618 23.845C25.8438 23.5672 25.9538 23.2484 25.9817 22.9174C26.0096 22.5864 25.9547 22.2537 25.8218 21.9493L22.8189 15.2119C22.6483 14.8142 22.3534 14.4825 21.9784 14.2666C21.6033 14.0507 21.1684 13.9624 20.7388 14.0147C18.8719 14.2601 17.1583 15.1769 15.9181 16.5938C14.6779 18.0106 13.9961 19.8306 14 21.7135C14 32.8997 23.1003 42 34.2864 42C36.1693 42.0036 37.9891 41.3216 39.4058 40.0815C40.8226 38.8414 41.7395 37.1279 41.9852 35.2612C42.0375 34.8336 41.9503 34.4006 41.7366 34.0266C41.523 33.6526 41.1943 33.3576 40.7995 33.1854ZM34.2864 40.2856C24.0461 40.2856 15.7144 31.9539 15.7144 21.7135C15.7096 20.2477 16.2387 18.8302 17.2028 17.726C18.1669 16.6217 19.5 15.9063 20.9531 15.7133H20.986C21.0435 15.7144 21.0994 15.7328 21.1463 15.7662C21.1933 15.7996 21.229 15.8464 21.2488 15.9005L24.2632 22.6307C24.2804 22.6681 24.2893 22.7088 24.2893 22.75C24.2893 22.7912 24.2804 22.8319 24.2632 22.8693L21.2474 26.4494C21.2249 26.475 21.2044 26.5022 21.186 26.5309C20.9973 26.8189 20.8861 27.1509 20.8634 27.4945C20.8406 27.8382 20.9069 28.1819 21.056 28.4924C22.3232 31.0867 24.9375 33.6811 27.5605 34.9483C27.8728 35.0965 28.2181 35.1613 28.5629 35.1362C28.9077 35.1112 29.2401 34.9972 29.5277 34.8054C29.5548 34.7869 29.582 34.7669 29.6077 34.7454L33.1335 31.7453C33.1683 31.7266 33.2068 31.7157 33.2462 31.7132C33.2857 31.7107 33.3252 31.7168 33.3621 31.731L40.1123 34.7554C40.1675 34.7789 40.2138 34.8191 40.2448 34.8704C40.2759 34.9217 40.29 34.9814 40.2852 35.0412C40.0932 36.4949 39.3784 37.8291 38.2745 38.7943C37.1705 39.7594 35.7528 40.2896 34.2864 40.2856Z" fill="#6E55C4"/>
</svg>
