<svg width="55" height="55" viewBox="0 0 55 55" fill="none" xmlns="http://www.w3.org/2000/svg">
<rect x="1" y="1" width="53" height="53" rx="26.5" stroke="#6E55C4" stroke-width="2"/>
<path d="M40.7995 43.0768L34.0507 39.6491C33.7449 39.5006 33.4113 39.4409 33.08 39.4754C32.7487 39.5099 32.4303 39.6375 32.1535 39.8466C32.1254 39.8671 32.0987 39.8898 32.0735 39.9146L28.5462 43.3148C28.5096 43.3374 28.4689 43.35 28.4272 43.3517C28.3856 43.3534 28.3441 43.3441 28.3062 43.3245C26.039 42.0842 23.6903 39.4386 22.5917 36.9047C22.5734 36.8624 22.5639 36.8159 22.5639 36.7687C22.5639 36.7216 22.5734 36.6751 22.5917 36.6327L25.6018 32.5849C25.6234 32.555 25.6435 32.5236 25.6618 32.491C25.8438 32.1761 25.9538 31.8148 25.9817 31.4397C26.0096 31.0646 25.9547 30.6875 25.8218 30.3425L22.8189 22.7068C22.6483 22.256 22.3534 21.8801 21.9784 21.6355C21.6033 21.3908 21.1684 21.2907 20.7388 21.35C18.8719 21.6281 17.1583 22.6672 15.9181 24.2729C14.6779 25.8787 13.9961 27.9413 14 30.0753C14 42.7529 23.1003 53.0666 34.2864 53.0666C36.1693 53.0707 37.9891 52.2979 39.4058 50.8924C40.8226 49.4869 41.7395 47.545 41.9852 45.4293C42.0375 44.9448 41.9503 44.454 41.7366 44.0302C41.523 43.6063 41.1943 43.2719 40.7995 43.0768ZM34.2864 51.1237C24.0461 51.1237 15.7144 41.6811 15.7144 30.0753C15.7096 28.414 16.2387 26.8076 17.2028 25.5561C18.1669 24.3046 19.5 23.4938 20.9531 23.2751H20.986C21.0435 23.2763 21.0994 23.2972 21.1463 23.3351C21.1933 23.3729 21.229 23.4259 21.2488 23.4872L24.2632 31.1148C24.2804 31.1572 24.2893 31.2033 24.2893 31.25C24.2893 31.2967 24.2804 31.3428 24.2632 31.3852L21.2474 35.4427C21.2249 35.4716 21.2044 35.5025 21.186 35.535C20.9973 35.8615 20.8861 36.2377 20.8634 36.6271C20.8406 37.0166 20.9069 37.4061 21.056 37.758C22.3232 40.6983 24.9375 43.6386 27.5605 45.0747C27.8728 45.2427 28.2181 45.3161 28.5629 45.2877C28.9077 45.2593 29.2401 45.1302 29.5277 44.9128C29.5548 44.8918 29.582 44.8691 29.6077 44.8448L33.1335 41.4447C33.1683 41.4235 33.2068 41.4111 33.2462 41.4083C33.2857 41.4055 33.3252 41.4124 33.3621 41.4285L40.1123 44.8562C40.1675 44.8828 40.2138 44.9284 40.2448 44.9865C40.2759 45.0446 40.29 45.1123 40.2852 45.18C40.0932 46.8276 39.3784 48.3396 38.2745 49.4335C37.1705 50.5273 35.7528 51.1282 34.2864 51.1237Z" fill="#6E55C4"/>
</svg>
