<svg width="73" height="73" viewBox="0 0 73 73" fill="none" xmlns="http://www.w3.org/2000/svg">
<circle cx="36.5" cy="36.5" r="35.5" stroke="#6E55C4" stroke-width="2"/>
<path d="M56.0571 28.9956C56.3429 28.0462 56.0571 27.35 54.7055 27.35H50.2281C49.0889 27.35 48.5683 27.9523 48.2824 28.6138C48.2824 28.6138 46.006 34.1651 42.7801 37.7646C41.7389 38.812 41.2632 39.1427 40.6956 39.1427C40.4118 39.1427 39.9994 38.812 39.9994 37.8626V28.9956C39.9994 27.8564 39.6707 27.35 38.7213 27.35H31.6857C30.9752 27.35 30.5465 27.8768 30.5465 28.379C30.5465 29.457 32.1594 29.7061 32.3248 32.7441V39.3346C32.3248 40.7781 32.0655 41.0415 31.4938 41.0415C29.9769 41.0415 26.2855 35.4697 24.0948 29.0916C23.6681 27.8523 23.2373 27.3521 22.094 27.3521H17.6186C16.3385 27.3521 16.0833 27.9544 16.0833 28.6159C16.0833 29.8041 17.6003 35.6841 23.1495 43.4608C26.849 48.7712 32.0573 51.65 36.8021 51.65C39.6462 51.65 39.9974 51.0109 39.9974 49.9084V45.8945C39.9974 44.6164 40.2689 44.3592 41.1693 44.3592C41.8308 44.3592 42.97 44.694 45.6262 47.2522C48.6601 50.2861 49.1624 51.6479 50.8672 51.6479H55.3425C56.6206 51.6479 57.2596 51.0089 56.8921 49.7471C56.4899 48.4915 55.0404 46.6642 53.1171 44.5021C52.0718 43.2689 50.5099 41.9418 50.0342 41.2783C49.3706 40.4228 49.5626 40.0451 50.0342 39.2856C50.0362 39.2877 55.4895 31.6069 56.0571 28.9956Z" fill="#6E55C4"/>
</svg>
